<svg width="65" height="65" viewBox="0 0 65 65" fill="none" xmlns="http://www.w3.org/2000/svg">
<circle cx="32.5" cy="32.5" r="32.5" fill="#251C31"/>
<path d="M31.9394 13L13 19.2916L15.993 42.716L31.9593 51L48.008 42.6037L51 19.1802L31.9394 13Z" fill="#BDBDBD"/>
<path d="M49.0258 20.3642L32 14.8439V49.0093L46.3242 41.5147L49.0258 20.3642Z" fill="#B71C1C"/>
<path d="M31.9467 14.8266L14.9733 20.4653L17.6759 41.6235L31.9557 49.0318L32 49.0093V14.8438L31.9467 14.8266Z" fill="#DD2C00"/>
<path d="M32 16.4511V24.6625L39.761 40.6364H43.7501L32 16.4511Z" fill="#BDBDBD"/>
<path d="M20.2499 40.6364H24.239L32 24.6625V16.4511L20.2499 40.6364Z" fill="#EEEEEE"/>
<path d="M32 32H37.4286V35.4545H32V32Z" fill="#BDBDBD"/>
<path d="M26.5714 32H32V35.4545H26.5714V32Z" fill="#EEEEEE"/>
</svg>
