<svg width="65" height="65" viewBox="0 0 65 65" fill="none" xmlns="http://www.w3.org/2000/svg">
<circle cx="32.5" cy="32.5" r="32.5" fill="#251C31"/>
<g clip-path="url(#clip0_114_46)">
<path d="M13 46.1002C13 48.8065 15.1938 51 17.8998 51H46.1001C48.8065 51 51 48.8062 51 46.1002V17.8999C51 15.1935 48.8062 13 46.1002 13H17.8999C15.1935 13 13 15.1938 13 17.8998V46.1001V46.1002Z" fill="#563D7C"/>
<path d="M28.7578 29.8088V24.4275H33.4946C33.9458 24.4275 34.3808 24.465 34.7997 24.5403C35.2185 24.6154 35.5892 24.7496 35.9115 24.943C36.2336 25.1364 36.4914 25.4049 36.6848 25.7486C36.8781 26.0923 36.9749 26.5328 36.9749 27.0696C36.9749 28.0364 36.6848 28.7347 36.1047 29.1643C35.5248 29.594 34.7836 29.8088 33.8813 29.8088H28.7578V29.8088ZM23.6986 20.4961V43.5039H34.848C35.8792 43.5039 36.8836 43.3751 37.861 43.1172C38.8385 42.8594 39.7085 42.462 40.4712 41.925C41.2337 41.3879 41.8406 40.695 42.2917 39.8466C42.743 38.9979 42.9685 37.9936 42.9685 36.8336C42.9685 35.3942 42.6193 34.1644 41.9212 33.144C41.223 32.1235 40.1649 31.4092 38.7471 31.001C39.7782 30.507 40.5571 29.8732 41.0835 29.0998C41.6097 28.3265 41.8729 27.3598 41.8729 26.1997C41.8729 25.1256 41.6956 24.2234 41.3411 23.4929C40.9867 22.7626 40.4872 22.1771 39.8427 21.7367C39.1983 21.2963 38.4249 20.9794 37.5226 20.7861C36.6204 20.5927 35.6214 20.4961 34.5258 20.4961H23.6986V20.4961ZM28.7578 39.5725V33.2567H34.268C35.3636 33.2567 36.2444 33.509 36.9104 34.014C37.5763 34.5188 37.9094 35.362 37.9094 36.5435C37.9094 37.1451 37.8073 37.6391 37.6032 38.0258C37.3991 38.4125 37.1252 38.7187 36.7814 38.9442C36.4378 39.1698 36.0403 39.3309 35.5892 39.4277C35.1379 39.5241 34.6655 39.5725 34.1713 39.5725H28.7578V39.5725Z" fill="white"/>
</g>
<defs>
<clipPath id="clip0_114_46">
<rect width="38" height="38" fill="white" transform="translate(13 13)"/>
</clipPath>
</defs>
</svg>
