<svg width="65" height="65" viewBox="0 0 65 65" fill="none" xmlns="http://www.w3.org/2000/svg">
<circle cx="32.5" cy="32.5" r="32.5" fill="#251C31"/>
<path d="M49 13H15L18 47L32 51L46 47L49 13Z" fill="#0277BD"/>
<path d="M32 16V47.9L43.2 44.7L45.7 16H32Z" fill="#039BE5"/>
<path d="M41.1 21H32V25H36.9L36.6 29H32V33H36.4L36.1 37.5L32 38.9V43.1L39.9 40.5L40.6 29L41.1 21Z" fill="white"/>
<path d="M32 21V25H23.1L22.8 21H32ZM27.4 29L27.6 33H32V29H27.4ZM27.8 35H23.8L24.1 40.5L32 43.1V38.9L27.9 37.5L27.8 35Z" fill="#EEEEEE"/>
</svg>
