<svg width="65" height="65" viewBox="0 0 65 65" fill="none" xmlns="http://www.w3.org/2000/svg">
<circle cx="32.5" cy="32.5" r="32.5" fill="#251C31"/>
<path d="M17.147 45.4545L17.339 45.0795L29.2445 22.4955L23.9555 12.4965C23.8683 12.3226 23.727 12.1817 23.553 12.0948C23.3789 12.0079 23.1814 11.9797 22.99 12.0145C22.7986 12.0493 22.6236 12.1452 22.4913 12.2878C22.359 12.4304 22.2764 12.612 22.256 12.8055L17.147 45.4545Z" fill="#FFA712"/>
<path d="M33.1025 29.6745L36.941 25.7445L33.1025 18.4245C33.0397 18.266 32.9324 18.1292 32.7935 18.0303C32.6546 17.9315 32.4901 17.8749 32.3198 17.8675C32.1495 17.86 31.9807 17.902 31.8338 17.9883C31.6868 18.0746 31.5679 18.2016 31.4915 18.354L29.3705 22.4475L29.3075 22.656L33.1025 29.6745Z" fill="#FFA50E"/>
<path d="M17 45.726L17.1155 45.609L17.534 45.4395L32.924 30.1065L33.119 29.5755L29.2805 22.2585L17 45.726V45.726Z" fill="#F6820C"/>
<path d="M47.4695 45.6255L43.5215 21.3135C43.5145 21.1483 43.4587 20.9889 43.3611 20.8555C43.2635 20.7221 43.1285 20.6206 42.9732 20.5639C42.8179 20.5072 42.6493 20.4979 42.4887 20.537C42.3281 20.5762 42.1827 20.6622 42.071 20.784L17.147 45.678L30.8435 53.328C31.2706 53.5663 31.7516 53.6914 32.2407 53.6914C32.7298 53.6914 33.2108 53.5663 33.638 53.328L47.4695 45.6255Z" fill="#FCCA3F"/>
</svg>
