<svg width="65" height="65" viewBox="0 0 65 65" fill="none" xmlns="http://www.w3.org/2000/svg">
<circle cx="32.5" cy="32.5" r="32.5" fill="#251C31"/>
<path d="M32 16V47.9L43.2 44.7L45.7 16H32Z" fill="#FF6D00"/>
<path d="M49 13H15L18 47L32 51L46 47L49 13Z" fill="#E65100"/>
<path d="M32 33V29H40.6L39.9 40.5L32 43.1V38.9L36.1 37.5L36.4 33H32ZM40.9 25L41.2 21H32V25H40.9Z" fill="white"/>
<path d="M32 38.9V43.1L24.1 40.5L23.7 35H27.7L27.9 37.5L32 38.9ZM27.1 25H32V21H22.9L23.6 33H32V29H27.4L27.1 25Z" fill="#EEEEEE"/>
</svg>
