<svg width="65" height="65" viewBox="0 0 65 65" fill="none" xmlns="http://www.w3.org/2000/svg">
<circle cx="32.5" cy="32.5" r="32.5" fill="#251C31"/>
<path d="M23.8225 46.261C23.5884 45.8295 23.5055 45.3321 23.5871 44.848H13.6211L28.4245 18.7855L34.6631 29.9005L36.6251 28.4365L30.4646 17.3605C30.2585 16.9818 29.9624 16.6597 29.6025 16.4224C29.2426 16.1852 28.8298 16.0401 28.4005 16C27.9683 16.0178 27.5499 16.1574 27.1935 16.4026C26.8371 16.6478 26.5572 16.9887 26.3861 17.386L11.3861 43.7755C11.1579 44.1454 11.0264 44.5668 11.0036 45.0008C10.9808 45.4349 11.0674 45.8677 11.2556 46.2595C11.4837 46.623 11.8095 46.9151 12.1956 47.1023C12.5818 47.2896 13.0128 47.3645 13.4396 47.3185H26.0006C25.5747 47.3659 25.144 47.2926 24.7579 47.1069C24.3717 46.9213 24.0455 46.6307 23.8166 46.2685L23.8225 46.261Z" fill="#00C58E"/>
<path d="M52.3045 43.828L40.234 22.3945C40.0378 22.0157 39.7493 21.6924 39.3951 21.4546C39.0409 21.2168 38.6324 21.0722 38.2075 21.034C37.7853 21.0519 37.3768 21.1893 37.0295 21.4301C36.6822 21.6709 36.4103 22.0053 36.2455 22.3945L34.6495 24.9445V29.8945L38.206 23.788L50.1325 44.8945H45.595C45.6673 45.3218 45.6032 45.7611 45.412 46.15L45.373 46.228C45.1273 46.5764 44.7995 46.8589 44.4185 47.0504C44.0376 47.242 43.6153 47.3366 43.189 47.326H50.29C50.7165 47.3378 51.1392 47.2437 51.5203 47.0521C51.9015 46.8605 52.2292 46.5773 52.474 46.228C52.6657 45.8494 52.75 45.4256 52.7178 45.0024C52.6855 44.5793 52.5379 44.1731 52.291 43.828H52.3045Z" fill="#108775"/>
<path d="M45.7 46.21L45.739 46.132L45.844 45.9235C45.972 45.5889 46.0037 45.2252 45.9355 44.8735C45.8685 44.4897 45.7312 44.1215 45.5305 43.7875L36.1015 27.4375L34.6765 24.9535H34.651L33.2125 27.4255L23.797 43.7755C23.6135 44.109 23.4896 44.4719 23.431 44.848C23.3421 45.3305 23.4204 45.829 23.653 46.261C23.89 46.6247 24.2233 46.9154 24.6158 47.1008C25.0083 47.2861 25.4446 47.3589 25.876 47.311H43.438C43.8772 47.325 44.3131 47.2309 44.7075 47.0372C45.1019 46.8434 45.4427 46.5557 45.7 46.1995V46.21ZM34.6495 29.914L43.2805 44.86H26.0185L34.6495 29.914Z" fill="#2F495E"/>
</svg>
