<svg width="65" height="65" viewBox="0 0 65 65" fill="none" xmlns="http://www.w3.org/2000/svg">
<circle cx="32.5" cy="32.5" r="32.5" fill="#251C31"/>
<path fill-rule="evenodd" clip-rule="evenodd" d="M32 11C36.1534 11 40.2135 12.2316 43.667 14.5391C47.1204 16.8466 49.812 20.1264 51.4015 23.9636C52.9909 27.8009 53.4068 32.0233 52.5965 36.0969C51.7862 40.1705 49.7861 43.9123 46.8492 46.8492C43.9123 49.7861 40.1705 51.7862 36.0969 52.5965C32.0233 53.4068 27.8009 52.9909 23.9636 51.4015C20.1264 49.812 16.8466 47.1204 14.5391 43.667C12.2316 40.2135 11 36.1534 11 32C11 26.4305 13.2125 21.089 17.1508 17.1508C21.089 13.2125 26.4305 11 32 11V11Z" fill="#CC6699"/>
<path d="M45.173 19.988C44.222 16.259 38.0375 15.038 32.1845 17.111C28.5189 18.3427 25.1323 20.2853 22.2185 22.8275C18.995 25.8425 18.4805 28.4675 18.692 29.564C19.442 33.434 24.7415 35.963 26.921 37.8395V37.85C26.279 38.1665 21.575 40.55 20.471 42.98C19.31 45.548 20.6555 47.39 21.548 47.6375C22.888 47.9601 24.2953 47.8551 25.5726 47.3373C26.8499 46.8194 27.933 45.9147 28.67 44.75C29.2791 43.8064 29.6601 42.7339 29.783 41.6175C29.9059 40.5012 29.7672 39.3715 29.378 38.318C30.4278 38.0512 31.5191 37.9886 32.5925 38.1335C36.2765 38.564 36.9995 40.8635 36.8615 41.8265C36.7966 42.1693 36.6586 42.4941 36.457 42.7788C36.2554 43.0635 35.9948 43.3015 35.693 43.4765C35.435 43.637 35.3555 43.691 35.378 43.811C35.4095 43.9835 35.528 43.9775 35.7485 43.94C36.3021 43.7656 36.7899 43.4277 37.1476 42.9706C37.5054 42.5135 37.7162 41.9588 37.7525 41.3795C37.841 39.1295 35.6795 36.6005 31.8515 36.665C30.7397 36.6332 29.6303 36.7853 28.568 37.115C28.5148 37.0543 28.4608 36.9942 28.406 36.935C26.039 34.4105 21.665 32.624 21.8495 29.2295C21.917 27.995 22.346 24.746 30.2495 20.804C36.7295 17.5745 41.9165 18.464 42.8135 20.4335C44.0945 23.2475 40.0415 28.475 33.3125 29.2295C32.5687 29.3805 31.8006 29.3621 31.0649 29.1756C30.3293 28.9892 29.645 28.6395 29.063 28.1525C28.709 27.7625 28.6565 27.746 28.5245 27.818C28.31 27.9365 28.4465 28.2815 28.5245 28.4855C28.7821 28.9499 29.1299 29.3581 29.5475 29.6862C29.965 30.0144 30.4439 30.2559 30.956 30.3965C33.6017 30.9714 36.3612 30.6985 38.843 29.6165C42.9245 28.043 46.1075 23.6555 45.173 19.988V19.988ZM27.827 38.9945C28.1249 40.0215 28.1098 41.1141 27.7835 42.1325C27.7485 42.2385 27.71 42.3435 27.668 42.4475C27.626 42.5515 27.5805 42.6515 27.5315 42.7475C27.279 43.264 26.952 43.7406 26.561 44.162C25.3415 45.4925 23.636 45.9965 22.9055 45.572C22.1165 45.1145 22.511 43.238 23.9255 41.7425C25.0124 40.6677 26.2654 39.7753 27.6365 39.0995L27.827 38.9945Z" fill="white"/>
</svg>
