<svg width="65" height="65" viewBox="0 0 65 65" fill="none" xmlns="http://www.w3.org/2000/svg">
<circle cx="32.5" cy="32.5" r="32.5" fill="#251C31"/>
<path d="M32 17C25.6001 17 21.5999 20.3334 20 27C22.4 23.6666 25.1999 22.4166 28.4 23.25C30.2257 23.7254 31.5307 25.1053 32.9752 26.6324C35.3283 29.1205 38.0516 32 44 32C50.3999 32 54.4001 28.6666 56 22C53.6 25.3334 50.8001 26.5834 47.6 25.75C45.7743 25.2746 44.4693 23.8947 43.0248 22.3676C40.6717 19.8795 37.9484 17 32 17ZM20 32C13.6001 32 9.59994 35.3334 8 42C10.4 38.6666 13.1999 37.4166 16.4 38.25C18.2257 38.7254 19.5307 40.1053 20.9752 41.6324C23.3283 44.1205 26.0516 47 32 47C38.3999 47 42.4001 43.6666 44 37C41.6 40.3334 38.8001 41.5834 35.6 40.75C33.7743 40.2746 32.4693 38.8947 31.0248 37.3676C28.6717 34.8795 25.9484 32 20 32Z" fill="url(#paint0_linear_114_40)"/>
<defs>
<linearGradient id="paint0_linear_114_40" x1="6.66656" y1="26.6" x2="48.9495" y2="50.0044" gradientUnits="userSpaceOnUse">
<stop stop-color="#2298BD"/>
<stop offset="1" stop-color="#0ED7B5"/>
</linearGradient>
</defs>
</svg>
