<svg width="65" height="65" viewBox="0 0 65 65" fill="none" xmlns="http://www.w3.org/2000/svg">
<circle cx="32.5" cy="32.5" r="32.5" fill="#251C31"/>
<path d="M50 14H14V50H50V14Z" fill="#1976D2"/>
<path d="M35.49 30H22.227V33.264H26.984V48H30.753V33.264H35.49V30Z" fill="white"/>
<path d="M47.194 34.084C47.194 34.084 45.407 32.892 43.387 32.892C41.367 32.892 40.64 33.852 40.64 34.878C40.64 37.526 48.021 37.261 48.021 42.59C48.021 50.799 36.767 47.158 36.767 47.158V43.22C36.767 43.22 38.919 44.842 41.5 44.842C44.081 44.842 43.983 43.154 43.983 42.922C43.983 40.473 36.668 40.473 36.668 35.044C36.668 27.663 47.326 30.575 47.326 30.575L47.194 34.084Z" fill="white"/>
</svg>
