<svg width="64" height="64" viewBox="0 0 64 64" fill="none" xmlns="http://www.w3.org/2000/svg">
<g clip-path="url(#clip0_190_16)">
<path d="M22 26H42L42 48.974C42 52.208 40.795 55.326 38.619 57.719L34.22 62.558C33.03 63.867 30.971 63.867 29.78 62.558L25.381 57.719C23.205 55.326 22 52.208 22 48.974V26Z" fill="#68E5FD"/>
<path d="M29.7799 62.558C30.9699 63.868 33.0289 63.868 34.2199 62.558L38.6189 57.719C39.8659 56.347 40.7819 54.733 41.3469 53H22.6529C23.2179 54.733 24.1339 56.347 25.3809 57.719L29.7799 62.558Z" fill="#9C34C2"/>
<path d="M25 18C25 15.29 28.439 10.975 30.496 8.637C31.296 7.727 32.704 7.727 33.505 8.637C35.561 10.975 39 15.29 39 18C39 21.866 35.866 25 32 25C28.134 25 25 21.866 25 18Z" fill="#FD3C4F"/>
<path d="M28 18C28 16.71 29.365 14.88 30.5 13.581C31.294 12.673 32.706 12.673 33.5 13.581C34.635 14.88 36 16.71 36 18C36 20.209 34.209 22 32 22C29.791 22 28 20.209 28 18Z" fill="#FFCE29"/>
<path d="M27.265 21H36.735C38.14 21 39.442 21.737 40.165 22.942L42 26L22 26L23.835 22.942C24.558 21.737 25.86 21 27.265 21Z" fill="#9C34C2"/>
<path opacity="0.15" d="M36.735 21H27.265C25.86 21 24.558 21.737 23.835 22.942L22 26V38C24.762 38 27 35.762 27 33V27.385L27.831 26H37C38.573 26 39.958 25.26 40.875 24.125L40.165 22.942C39.442 21.737 38.14 21 36.735 21Z" fill="black"/>
<path d="M42 26L49.425 23.772C50.709 23.387 52 24.348 52 25.688V30.68C52 32.173 51.444 33.612 50.44 34.716L42 44V26Z" fill="#9C34C2"/>
<path d="M22 26L14.575 23.772C13.291 23.387 12 24.348 12 25.688V30.68C12 32.173 12.556 33.612 13.56 34.716L22 44L22 26Z" fill="#9C34C2"/>
<path d="M32 42C29.7909 42 28 43.7909 28 46C28 48.2091 29.7909 50 32 50C34.2091 50 36 48.2091 36 46C36 43.7909 34.2091 42 32 42Z" fill="#9C34C2"/>
<path d="M32 31C29.7909 31 28 32.7909 28 35C28 37.2091 29.7909 39 32 39C34.2091 39 36 37.2091 36 35C36 32.7909 34.2091 31 32 31Z" fill="#9C34C2"/>
<path opacity="0.3" d="M37 48.974C37 50.969 36.262 52.88 34.919 54.356L31.671 57.929C29.944 57.226 27.89 57.522 26.418 58.86L29.78 62.558C30.97 63.868 33.029 63.868 34.22 62.558L38.619 57.719C40.795 55.326 42 52.208 42 48.974V43.974C39.238 43.974 37 46.212 37 48.974Z" fill="white"/>
<path d="M35.5009 54C35.8239 54 36.1489 54.104 36.4239 54.318C37.0769 54.829 37.1919 55.771 36.6819 56.423L34.0399 59.8C33.5289 60.454 32.587 60.569 31.935 60.058C31.282 59.547 31.1669 58.605 31.6769 57.953L34.3189 54.576C34.6139 54.197 35.0559 54 35.5009 54Z" fill="white"/>
</g>
<defs>
<clipPath id="clip0_190_16">
<rect width="64" height="64" fill="white" transform="matrix(-1 0 0 -1 64 64)"/>
</clipPath>
</defs>
</svg>
