<svg width="20" height="20" viewBox="0 0 20 20" fill="none"
    xmlns="http://www.w3.org/2000/svg">
    <g clip-path="url(#clip0_190_16)">
        <path d="M6.875 8.12503H13.125L13.125 15.3044C13.125 16.315 12.7484 17.2894 12.0684 18.0372L10.6937 19.5494C10.3219 19.9585 9.67844 19.9585 9.30625 19.5494L7.93156 18.0372C7.25156 17.2894 6.875 16.315 6.875 15.3044L6.875 8.12503Z" fill="#68E5FD"/>
        <path d="M9.30621 19.5494C9.67809 19.9588 10.3215 19.9588 10.6937 19.5494L12.0684 18.0372C12.4581 17.6085 12.7443 17.1041 12.9209 16.5625H7.07902C7.25559 17.1041 7.54184 17.6085 7.93152 18.0372L9.30621 19.5494Z" fill="#9C34C2"/>
        <path d="M7.8125 5.625C7.8125 4.77812 8.88719 3.42969 9.53 2.69906C9.78 2.41469 10.22 2.41469 10.4703 2.69906C11.1128 3.42969 12.1875 4.77812 12.1875 5.625C12.1875 6.83312 11.2081 7.8125 10 7.8125C8.79188 7.8125 7.8125 6.83312 7.8125 5.625Z" fill="#FD3C4F"/>
        <path d="M8.75 5.625C8.75 5.22188 9.17656 4.65 9.53125 4.24406C9.77938 3.96031 10.2206 3.96031 10.4688 4.24406C10.8234 4.65 11.25 5.22188 11.25 5.625C11.25 6.31531 10.6903 6.875 10 6.875C9.30969 6.875 8.75 6.31531 8.75 5.625Z" fill="#FFCE29"/>
        <path d="M8.52031 6.5625L11.4797 6.5625C11.9188 6.5625 12.3256 6.79281 12.5516 7.16938L13.125 8.125H6.875L7.44844 7.16938C7.67437 6.79281 8.08125 6.5625 8.52031 6.5625Z" fill="#9C34C2"/>
        <path opacity="0.15" d="M11.4797 6.5625L8.52031 6.5625C8.08125 6.5625 7.67437 6.79281 7.44844 7.16938L6.875 8.125L6.875 11.875C7.73813 11.875 8.4375 11.1756 8.4375 10.3125V8.55781L8.69719 8.125H11.5625C12.0541 8.125 12.4869 7.89375 12.7734 7.53906L12.5516 7.16938C12.3256 6.79281 11.9188 6.5625 11.4797 6.5625Z" fill="black"/>
        <path d="M13.125 8.125L15.4453 7.42875C15.8466 7.30844 16.25 7.60875 16.25 8.0275V9.5875C16.25 10.0541 16.0762 10.5037 15.7625 10.8487L13.125 13.75V8.125Z" fill="#9C34C2"/>
        <path d="M6.875 8.125L4.55469 7.42875C4.15344 7.30844 3.75 7.60875 3.75 8.0275L3.75 9.5875C3.75 10.0541 3.92375 10.5037 4.2375 10.8487L6.875 13.75L6.875 8.125Z" fill="#9C34C2"/>
        <path d="M10 13.125C9.30964 13.125 8.75 13.6846 8.75 14.375C8.75 15.0654 9.30964 15.625 10 15.625C10.6904 15.625 11.25 15.0654 11.25 14.375C11.25 13.6846 10.6904 13.125 10 13.125Z" fill="#9C34C2"/>
        <path d="M10 9.6875C9.30964 9.6875 8.75 10.2471 8.75 10.9375C8.75 11.6279 9.30964 12.1875 10 12.1875C10.6904 12.1875 11.25 11.6279 11.25 10.9375C11.25 10.2471 10.6904 9.6875 10 9.6875Z" fill="#9C34C2"/>
        <path opacity="0.3" d="M11.5625 15.3044C11.5625 15.9279 11.3319 16.525 10.9122 16.9863L9.89719 18.1029C9.3575 17.8832 8.71562 17.9757 8.25562 18.3938L9.30625 19.5494C9.67812 19.9588 10.3216 19.9588 10.6937 19.5494L12.0684 18.0372C12.7484 17.2894 13.125 16.315 13.125 15.3044V13.7419C12.2619 13.7419 11.5625 14.4413 11.5625 15.3044Z" fill="white"/>
        <path d="M11.094 16.875C11.1949 16.875 11.2965 16.9075 11.3824 16.9744C11.5865 17.134 11.6224 17.4284 11.463 17.6322L10.6374 18.6875C10.4777 18.8919 10.1833 18.9278 9.9796 18.7681C9.77553 18.6084 9.73959 18.314 9.89897 18.1103L10.7246 17.055C10.8168 16.9365 10.9549 16.875 11.094 16.875Z" fill="white"/>
    </g>
    <defs>
        <clipPath id="clip0_190_16">
            <rect width="20" height="20" fill="white" transform="matrix(-1 0 0 -1 20 20)"/>
        </clipPath>
    </defs>
</svg>
